<?xml version="1.0" encoding="utf-8"?>
<!-- Generator: Adobe Illustrator 23.1.1, SVG Export Plug-In . SVG Version: 6.00 Build 0)  -->
<svg version="1.1" id="图层_1" xmlns="http://www.w3.org/2000/svg" xmlns:xlink="http://www.w3.org/1999/xlink" x="0px" y="0px"
	 viewBox="0 0 72.7 68.7" style="enable-background:new 0 0 72.7 68.7;" xml:space="preserve">
<style type="text/css">
	.st0{fill:#1296DB;}
	.st1{fill:none;}
	.st2{fill:none;stroke:#1296DB;stroke-width:3.5;stroke-miterlimit:10;}
	.st3{fill:none;stroke:#1296DB;stroke-width:3;stroke-miterlimit:10;}
	.st4{fill:none;stroke:#1296DB;stroke-width:5;stroke-linecap:round;stroke-miterlimit:10;}
	.st5{fill:#DEF2FC;}
	.st6{fill:#00AADC;}
	.st7{clip-path:url(#SVGID_2_);}
	.st8{clip-path:url(#SVGID_4_);}
	.st9{fill:#DCEEF8;}
</style>
<circle class="st5" cx="36.5" cy="34.6" r="33.7"/>
<path class="st6" d="M55.9,53.9l-8.2-10.8l-6.8-8.9V20.5h0.2c0.6,0,1.1-0.5,1.1-1.1c0,0,0,0,0,0l0,0c0-0.6-0.4-1.1-1-1.1h-9.3
	c-0.6,0-1.1,0.5-1.1,1.1c0,0,0,0,0,0l0,0c0,0.6,0.5,1.1,1.1,1.1c0,0,0,0,0,0H32v13.8l-6.8,8.9L17,53.9c-0.8,1-0.7,2.5,0.3,3.4
	c0.4,0.3,0.9,0.5,1.4,0.5h35.3c1.3,0,2.3-1.1,2.3-2.4C56.4,54.9,56.2,54.4,55.9,53.9z M39.5,20.5v9.1h-6.1v-9.1L39.5,20.5z"/>
<ellipse class="st5" cx="30.9" cy="49" rx="1.9" ry="2"/>
<ellipse class="st5" cx="40.4" cy="42.9" rx="1.9" ry="2"/>
<ellipse class="st5" cx="35" cy="38.2" rx="1.3" ry="1.4"/>
<ellipse class="st0" cx="38.4" cy="14.6" rx="2.5" ry="2.6"/>
<ellipse class="st0" cx="32.1" cy="10.3" rx="2.1" ry="2.2"/>
<ellipse class="st0" cx="36.2" cy="6.3" rx="1.7" ry="1.8"/>
<ellipse class="st5" cx="41.3" cy="52" rx="2.4" ry="2.5"/>
</svg>
